<svg xmlns="http://www.w3.org/2000/svg" viewBox="0 0 1586.9 443"><path d="M349.9 167.7l-48 107.7h-7.8l-48-107.7h8.6l43.5 97.5 43.5-97.5h8.2zM383.4 269c-8.5-4.8-15.2-11.3-20.1-19.6-4.9-8.3-7.3-17.6-7.3-27.8s2.4-19.5 7.3-27.9c4.9-8.3 11.6-14.8 20.1-19.6 8.5-4.8 18.1-7.2 28.6-7.2s20.1 2.4 28.6 7.1 15.2 11.2 20.1 19.5 7.3 17.6 7.3 28-2.4 19.7-7.3 28-11.6 14.8-20.1 19.5c-8.5 4.7-18.1 7.1-28.6 7.1s-20.1-2.4-28.6-7.2zm53.1-6.2c7.3-4.1 13-9.8 17.2-17 4.2-7.2 6.3-15.3 6.3-24.2s-2.1-17-6.3-24.2c-4.2-7.2-10-12.9-17.2-17-7.3-4.1-15.4-6.2-24.5-6.2s-17.2 2.1-24.5 6.2c-7.3 4.1-13.1 9.8-17.3 17-4.2 7.2-6.3 15.3-6.3 24.2s2.1 17 6.3 24.2c4.2 7.2 10 12.9 17.3 17 7.3 4.1 15.5 6.2 24.5 6.2s17.2-2.1 24.5-6.2zm58.8-95.1h7.8v100.6h62v7.1h-69.8V167.7zm98.2 96.6c-7.5-7.9-11.3-19.4-11.3-34.6v-62h7.8v61.7c0 13.2 3 23.1 9.1 29.7 6.1 6.6 14.8 9.8 26.3 9.8s20.1-3.3 26.2-9.8 9.1-16.5 9.1-29.7v-61.7h7.8v62c0 15.2-3.8 26.7-11.4 34.6-7.6 7.9-18.2 11.8-31.8 11.8s-24.2-3.9-31.8-11.8zM807 275.4l-.2-92.2-45.1 77.8h-3.8l-45.1-77.5v91.9h-7.7V167.7h6.6l48.2 83.2 48.2-83.2h6.5l.2 107.7h-7.7zm45.2-107.7h7.8v107.7h-7.8V167.7zm133.1 0v107.7h-6.5l-73.4-93.5v93.5h-7.8V167.7h6.6l73.2 93.5v-93.5h7.8zm54.6 101.3c-8.5-4.8-15.2-11.3-20.1-19.6-4.9-8.3-7.3-17.6-7.3-27.8s2.4-19.5 7.3-27.9c4.9-8.3 11.6-14.8 20.1-19.6 8.5-4.8 18.1-7.2 28.6-7.2s20.1 2.4 28.6 7.1c8.5 4.7 15.2 11.2 20.1 19.5 4.9 8.3 7.3 17.6 7.3 28s-2.4 19.7-7.3 28-11.6 14.8-20.1 19.5c-8.5 4.7-18.1 7.1-28.6 7.1s-20.1-2.4-28.6-7.2zm53.1-6.2c7.3-4.1 13-9.8 17.2-17 4.2-7.2 6.3-15.3 6.3-24.2s-2.1-17-6.3-24.2c-4.2-7.2-10-12.9-17.2-17-7.3-4.1-15.4-6.2-24.5-6.2s-17.2 2.1-24.5 6.2c-7.3 4.1-13.1 9.8-17.3 17-4.2 7.2-6.3 15.3-6.3 24.2s2.1 17 6.3 24.2c4.2 7.2 10 12.9 17.3 17 7.3 4.1 15.5 6.2 24.5 6.2s17.2-2.1 24.5-6.2zm69.2 1.5c-7.5-7.9-11.3-19.4-11.3-34.6v-62h7.8v61.7c0 13.2 3 23.1 9.1 29.7 6.1 6.6 14.8 9.8 26.3 9.8s20.1-3.3 26.2-9.8c6.1-6.6 9.1-16.5 9.1-29.7v-61.7h7.8v62c0 15.2-3.8 26.7-11.4 34.6-7.6 7.9-18.2 11.8-31.8 11.8s-24.2-3.9-31.8-11.8zm117.3 7.8c-7.1-2.7-12.7-6.2-16.7-10.5l3.5-5.8c3.8 4 8.9 7.3 15.3 9.8 6.4 2.5 13.2 3.8 20.2 3.8 10.3 0 18-1.9 23.2-5.8 5.2-3.9 7.8-9 7.8-15.2s-1.4-8.7-4.2-11.5c-2.8-2.9-6.2-5.1-10.3-6.6-4.1-1.5-9.6-3.1-16.6-4.8-7.9-1.9-14.2-3.9-19-5.7-4.8-1.8-8.8-4.7-12.2-8.5s-5-9-5-15.5 1.4-10 4.2-14.4c2.8-4.4 7-7.8 12.7-10.4 5.7-2.6 12.8-3.8 21.3-3.8s11.8.9 17.5 2.6c5.7 1.7 10.7 4.1 14.9 7.1l-2.9 6.3c-4.3-3-9.1-5.2-14.2-6.8-5.2-1.5-10.3-2.3-15.3-2.3-10 0-17.5 2-22.6 6-5.1 4-7.7 9.2-7.7 15.5s1.4 8.7 4.2 11.5c2.8 2.9 6.2 5.1 10.3 6.6 4.1 1.5 9.7 3.2 16.8 4.9 7.9 1.9 14.2 3.8 18.9 5.7 4.7 1.8 8.7 4.6 12.1 8.4 3.3 3.7 5 8.8 5 15.1s-1.4 10-4.2 14.3c-2.8 4.3-7.2 7.7-13 10.3-5.8 2.6-13 3.8-21.5 3.8s-15.4-1.4-22.5-4.1z" fill="#e3c09b"/></svg>