<?xml version="1.0" encoding="UTF-8"?> <svg xmlns="http://www.w3.org/2000/svg" viewBox="0 0 395.89 126.3"> <defs> <style>.cls-1{fill:#fff;}</style> </defs> <g id="Слой_2" data-name="Слой 2"> <g id="Слой_1-2" data-name="Слой 1"> <path class="cls-1" d="M372.39,5.47V67.2h-3.47V5.47H345.43V2h50.46V5.47Zm-29.6,8.83c-2.72-6.58-9.3-10.81-17.57-11.09-5.64-.09-10.43,1-13.81,3.38a12.23,12.23,0,0,0-5.45,10c-.28,8.55,9.86,11.66,18.89,14.38l.94.28c8.73,2.63,22.08,6.58,21.61,20a17.17,17.17,0,0,1-7,13.25,26.66,26.66,0,0,1-15.88,4.69,4.71,4.71,0,0,1-1.12-.09c-6.77-.19-12.6-2.35-16.82-6.2a20.51,20.51,0,0,1-6.3-12.31v-.19l3.29.1h.09l.1.09v.09c1.13,7.14,6.95,14.85,19.73,15.23,5.92.18,10.9-1.13,14.56-3.76a13.56,13.56,0,0,0,5.83-11c.38-10.9-10.62-14.28-19.54-16.91-.94-.19-1.79-.47-2.73-.75l-.84-.28c-7.43-2.35-18.7-5.83-18.33-16.73C302.76,6.31,312.25-.36,325.32,0,335,.39,342.79,5.28,346,13.17v.19l-3.2,1.13ZM289.42,67.2V2h3.48V67.2Zm-9.4,0h-4.13L234.82,6.88V67.2h-3.47V2h4.32l40.88,60V2H280V67h-.09ZM191.22,3.4a31.2,31.2,0,1,0,31.2,31.2A31.2,31.2,0,0,0,191.22,3.4Zm0,65.77A34.58,34.58,0,1,1,225.8,34.6,34.72,34.72,0,0,1,191.22,69.17Zm-71-63.89H103.55V63.91h16.63a29.32,29.32,0,1,0,0-58.63Zm0,61.92H100.26V2h19.92A32.81,32.81,0,0,1,153.07,34.6,32.8,32.8,0,0,1,120.18,67.2ZM93.69,63.82v3.29H53v-65H93.69V5.37H56.29V32.9h32.6v3.39H56.29V63.82ZM41.91,67.2V36.38H3.48V67.2H0V2H3.48V32.81H41.91V2h3.48V67.2Z"></path> <path class="cls-1" d="M166.13,112.61c0,3.33-.09,6.33-2.15,9.19a10.46,10.46,0,0,1-8.63,4.18c-5.68,0-10.37-3.33-10.7-9.29h2.11c.24,4.5,4,7.32,8.4,7.32a8.11,8.11,0,0,0,6.94-3.24c1.69-2.49,1.92-5.3,1.92-8.21v-2.67h-.09a10.73,10.73,0,0,1-8.44,4.22c-6.29,0-10.51-5.3-10.51-11.35,0-6.24,4.46-11.26,10.79-11.26a9.64,9.64,0,0,1,8.16,4.22H164V92h2.11Zm-19-9.94c0,5,3.28,9.47,8.54,9.47,5.53,0,8.53-4.5,8.53-9.71,0-5-3.42-9-8.67-9C150.52,93.47,147.09,98,147.09,102.67Z"></path> <path class="cls-1" d="M175.47,94.78h.09a4.93,4.93,0,0,1,4.69-3.28,5.45,5.45,0,0,1,2.3.52l-1.12,1.87a2.94,2.94,0,0,0-1.5-.42c-4.74,0-4.46,5.91-4.46,9.1v11.07h-2.11V92h2.11Z"></path> <path class="cls-1" d="M207,102.81a11.33,11.33,0,1,1-11.4-11.31A11.19,11.19,0,0,1,207,102.81Zm-20.55,0a9.22,9.22,0,1,0,9-9.38A9.19,9.19,0,0,0,186.4,102.85Z"></path> <path class="cls-1" d="M227.3,92v13c0,2.21,0,4.41-1.31,6.24a8.66,8.66,0,0,1-13,0c-1.36-1.83-1.31-4-1.31-6.24V92h2.11v12.24c0,4.18.47,7.93,5.68,7.93s5.67-3.75,5.67-7.93V92Z"></path> <path class="cls-1" d="M236.31,95.86h.09a9.73,9.73,0,0,1,8.26-4.36c6.61,0,10.69,5.16,10.69,11.49s-4.08,11.12-10.6,11.12a9.81,9.81,0,0,1-8.35-4.22h-.09V126.3H234.2V92h2.11Zm-.14,7.41c0,5.07,3.42,8.87,8.63,8.87s8.44-4.27,8.44-9.1-3.23-9.57-8.53-9.57C239.17,93.47,236.17,98.07,236.17,103.27Z"></path> </g> </g> </svg> 