<?xml version="1.0" encoding="UTF-8"?>
<svg id="_Слой_2" data-name="Слой 2" xmlns="http://www.w3.org/2000/svg" viewBox="0 0 251.69 159.53">
  <defs>
    <style>
      .cls-1 {
        stroke-width: .63px;
      }

      .cls-1, .cls-2, .cls-3, .cls-4, .cls-5, .cls-6, .cls-7, .cls-8, .cls-9, .cls-10, .cls-11, .cls-12, .cls-13, .cls-14, .cls-15, .cls-16, .cls-17 {
        fill: none;
      }

      .cls-1, .cls-2, .cls-3, .cls-4, .cls-5, .cls-6, .cls-7, .cls-8, .cls-9, .cls-10, .cls-11, .cls-12, .cls-13, .cls-14, .cls-15, .cls-16, .cls-17, .cls-18 {
        stroke: #000;
        stroke-miterlimit: 10;
      }

      .cls-2 {
        stroke-width: .08px;
      }

      .cls-3 {
        stroke-width: .3px;
      }

      .cls-19 {
        fill: #9b9b9b;
      }

      .cls-4 {
        stroke-width: .51px;
      }

      .cls-5 {
        stroke-width: .11px;
      }

      .cls-6, .cls-18 {
        stroke-width: .38px;
      }

      .cls-7 {
        stroke-width: .15px;
      }

      .cls-8 {
        stroke-width: .19px;
      }

      .cls-9 {
        stroke-width: .59px;
      }

      .cls-10 {
        stroke-width: .27px;
      }

      .cls-11 {
        stroke-width: .34px;
      }

      .cls-12 {
        stroke-width: .55px;
      }

      .cls-13 {
        stroke-width: .04px;
      }

      .cls-14 {
        stroke-width: .66px;
      }

      .cls-15 {
        stroke-width: .44px;
      }

      .cls-16 {
        stroke-width: .23px;
      }

      .cls-17 {
        stroke-width: .47px;
      }

      .cls-18 {
        fill: #fff;
      }
    </style>
  </defs>
  <g id="_Слой_1-2" data-name="Слой 1">
    <g id="uuid-611a0456-6ca7-404c-99d3-b2e059e6fa6c" data-name=" Слой 1-2">
      <g>
        <g>
          <path class="cls-14" d="M140.58,27.72l-1.96,11.24c-1.48,8.49,2.72,16.94,10.35,20.91l10.14,5.26c15.23,7.92,13.81,30.17-2.32,36.08l-10.73,3.93c-8.09,2.96-13.31,10.82-12.93,19.43l.51,11.41c.76,17.15-19.22,27.04-32.4,16.03l-8.75-7.33c-6.61-5.53-16.03-6.13-23.28-1.5l-9.63,6.13c-14.47,9.23-33.02-3.13-30.08-20.05l1.96-11.24c1.48-8.49-2.72-16.94-10.35-20.91l-10.14-5.26c-15.23-7.92-13.81-30.17,2.32-36.08l10.73-3.93c8.09-2.96,13.31-10.82,12.93-19.43l-.51-11.41c-.76-17.15,19.22-27.04,32.4-16.03l8.75,7.33c6.61,5.53,16.03,6.13,23.28,1.5l9.63-6.13c14.47-9.23,33.02,3.13,30.08,20.05h0Z"/>
          <path class="cls-1" d="M61.13,144.91c-13.58,8.66-30.97-2.92-28.2-18.8l1.84-10.54c1.39-7.96-2.54-15.89-9.7-19.62l-9.49-4.94c-14.28-7.43-12.95-28.28,2.16-33.82l10.05-3.68c7.58-2.77,12.5-10.14,12.13-18.21l-.47-10.69c-.7-16.08,18.02-25.35,30.36-15.02l8.22,6.87c6.19,5.18,15.02,5.73,21.84,1.41l9.02-5.75c13.58-8.66,30.97,2.92,28.2,18.8l-1.84,10.54c-1.39,7.96,2.54,15.89,9.7,19.62l9.49,4.94c14.28,7.43,12.95,28.28-2.16,33.82l-10.05,3.68c-7.58,2.77-12.5,10.14-12.13,18.21l.47,10.69c.7,16.08-18.02,25.35-30.36,15.02l-8.22-6.87c-6.19-5.18-15.02-5.73-21.84-1.41,0,0-9.02,5.75-9.02,5.75Z"/>
          <path class="cls-9" d="M62.72,140.48c-12.67,8.07-28.9-2.73-26.32-17.55,0,0,1.71-9.84,1.73-9.84,1.29-7.43-2.37-14.83-9.06-18.31l-8.87-4.61c-13.33-6.93-12.08-26.4,2.03-31.56l9.38-3.44c7.08-2.58,11.66-9.46,11.32-17l-.44-9.97c-.66-15,16.83-23.66,28.35-14.03l7.67,6.42c5.77,4.82,14.03,5.36,20.38,1.31l8.41-5.37c12.67-8.07,28.9,2.73,26.32,17.55,0,0-1.71,9.84-1.73,9.84-1.29,7.43,2.37,14.83,9.06,18.31l8.87,4.61c13.33,6.93,12.08,26.4-2.03,31.56l-9.38,3.44c-7.08,2.58-11.66,9.46-11.32,17l.44,9.97c.66,15-16.83,23.66-28.35,14.03l-7.67-6.42c-5.77-4.82-14.03-5.36-20.38-1.31,0,0-8.41,5.37-8.41,5.37Z"/>
          <path class="cls-12" d="M64.32,136.04c-11.75,7.5-26.83-2.54-24.44-16.27l1.6-9.13c1.2-6.89-2.2-13.77-8.41-17l-8.22-4.27c-12.38-6.44-11.22-24.52,1.88-29.3l8.72-3.19c6.57-2.41,10.82-8.79,10.52-15.78,0,0-.4-9.27-.42-9.27-.61-13.94,15.61-21.97,26.32-13.03,0,0,7.12,5.94,7.12,5.96,5.37,4.48,13.03,4.98,18.91,1.22,0,0,7.82-4.98,7.8-4.99,11.75-7.5,26.83,2.54,24.44,16.27l-1.6,9.13c-1.2,6.89,2.2,13.77,8.41,17l8.22,4.27c12.38,6.44,11.22,24.52-1.88,29.3l-8.72,3.19c-6.57,2.41-10.82,8.79-10.52,15.78,0,0,.4,9.27.42,9.27.61,13.94-15.61,21.97-26.32,13.03,0,0-7.12-5.94-7.12-5.96-5.37-4.48-13.03-4.98-18.91-1.22,0,0-7.82,4.98-7.8,4.99h0Z"/>
          <path class="cls-4" d="M65.89,131.62c-10.86,6.93-24.76-2.34-22.56-15.02l1.48-8.43c1.1-6.36-2.03-12.7-7.75-15.69,0,0-7.58-3.95-7.6-3.95-11.43-5.94-10.35-22.62,1.75-27.04l8.05-2.94c6.06-2.22,9.99-8.11,9.7-14.57l-.38-8.55c-.57-12.88,14.41-20.28,24.29-12.02,0,0,6.57,5.49,6.57,5.51,4.96,4.14,12.02,4.6,17.47,1.12l7.22-4.6c10.86-6.93,24.76,2.34,22.56,15.02l-1.48,8.43c-1.1,6.36,2.03,12.7,7.75,15.69,0,0,7.58,3.95,7.6,3.95,11.43,5.94,10.35,22.62-1.75,27.04l-8.05,2.94c-6.06,2.22-9.99,8.11-9.7,14.57l.38,8.55c.57,12.88-14.41,20.28-24.29,12.02,0,0-6.57-5.49-6.57-5.51-4.96-4.14-12.02-4.6-17.47-1.12,0,0-7.22,4.6-7.22,4.6Z"/>
          <path class="cls-17" d="M67.49,127.17c-9.95,6.34-22.71-2.15-20.68-13.77,0,0,1.35-7.73,1.37-7.73,1.01-5.83-1.86-11.66-7.1-14.38,0,0-6.95-3.63-6.95-3.61-10.48-5.45-9.49-20.74,1.6-24.8,0,0,7.37-2.7,7.39-2.7,5.56-2.03,9.15-7.44,8.91-13.35l-.34-7.82c-.51-11.79,13.22-18.59,22.28-11.01,0,0,6.02,5.03,6.02,5.05,4.54,3.8,11.01,4.22,16.01,1.03l6.61-4.22c9.95-6.34,22.71,2.15,20.68,13.77,0,0-1.35,7.73-1.37,7.73-1.01,5.83,1.86,11.66,7.1,14.38,0,0,6.95,3.63,6.95,3.61,10.48,5.45,9.49,20.74-1.6,24.8,0,0-7.37,2.7-7.39,2.7-5.56,2.03-9.15,7.44-8.91,13.35l.34,7.82c.51,11.79-13.22,18.59-22.28,11.01,0,0-6.02-5.03-6.02-5.05-4.54-3.8-11.01-4.22-16.01-1.03,0,0-6.61,4.22-6.61,4.22Z"/>
          <path class="cls-15" d="M69.08,122.75c-9.04,5.77-20.64-1.96-18.8-12.51l1.23-7.03c.93-5.3-1.69-10.6-6.46-13.08,0,0-6.3-3.29-6.32-3.29-9.51-4.96-8.62-18.86,1.44-22.54l6.7-2.45c5.05-1.84,8.34-6.76,8.09-12.13,0,0-.3-7.12-.32-7.1-.47-10.73,12-16.9,20.24-10.01,0,0,5.47,4.58,5.47,4.6,4.12,3.46,10.03,3.84,14.55.95,0,0,6-3.82,6-3.84,9.04-5.77,20.64,1.96,18.8,12.51l-1.23,7.03c-.93,5.3,1.69,10.6,6.46,13.08,0,0,6.3,3.29,6.32,3.29,9.51,4.96,8.62,18.86-1.44,22.54l-6.7,2.45c-5.05,1.84-8.34,6.76-8.09,12.13,0,0,.3,7.12.32,7.1.47,10.73-12,16.9-20.24,10.01,0,0-5.47-4.58-5.47-4.6-4.12-3.46-10.03-3.84-14.55-.95,0,0-6,3.82-6,3.84Z"/>
          <path class="cls-6" d="M70.68,118.3c-8.15,5.2-18.57-1.75-16.92-11.26l1.12-6.32c.84-4.77-1.52-9.53-5.81-11.77,0,0-5.68-2.96-5.68-2.94-8.56-4.46-7.77-16.96,1.31-20.28l6.04-2.2c4.54-1.67,7.5-6.08,7.29-10.92,0,0-.27-6.4-.28-6.4-.42-9.65,10.81-15.21,18.21-9.02,0,0,4.92,4.12,4.92,4.14,3.72,3.11,9.02,3.46,13.1.85,0,0,5.41-3.44,5.39-3.44,8.15-5.2,18.57,1.75,16.92,11.26l-1.12,6.32c-.84,4.77,1.52,9.53,5.81,11.77,0,0,5.68,2.96,5.68,2.94,8.56,4.46,7.77,16.96-1.31,20.28l-6.04,2.2c-4.54,1.67-7.5,6.08-7.29,10.92,0,0,.27,6.4.28,6.4.42,9.65-10.81,15.21-18.21,9.02,0,0-4.92-4.12-4.92-4.14-3.72-3.11-9.02-3.46-13.1-.85,0,0-5.41,3.44-5.39,3.44Z"/>
          <path class="cls-11" d="M72.25,113.88c-7.24,4.61-16.5-1.56-15.04-10.01,0,0,.99-5.62,1.01-5.62.74-4.23-1.35-8.47-5.17-10.46,0,0-5.03-2.64-5.05-2.62-7.61-3.97-6.91-15.08,1.16-18.02,0,0,5.36-1.96,5.37-1.96,4.04-1.48,6.67-5.41,6.48-9.7l-.25-5.68c-.38-8.58,9.61-13.52,16.2-8.01,0,0,4.37,3.67,4.37,3.68,3.3,2.75,8.01,3.08,11.64.76,0,0,4.8-3.06,4.79-3.06,7.24-4.61,16.5,1.56,15.04,10.01,0,0-.99,5.62-1.01,5.62-.74,4.23,1.35,8.47,5.17,10.46,0,0,5.03,2.64,5.05,2.62,7.61,3.97,6.91,15.08-1.16,18.02,0,0-5.36,1.96-5.37,1.96-4.04,1.48-6.67,5.41-6.48,9.7l.25,5.68c.38,8.58-9.61,13.52-16.2,8.01,0,0-4.37-3.67-4.37-3.68-3.3-2.75-8.01-3.08-11.64-.76,0,0-4.8,3.06-4.79,3.06Z"/>
          <path class="cls-3" d="M73.85,109.44c-6.34,4.04-14.45-1.37-13.16-8.75l.87-4.92c.65-3.7-1.18-7.43-4.52-9.15,0,0-4.41-2.3-4.41-2.28-6.67-3.46-6.04-13.18,1.01-15.78,0,0,4.69-1.71,4.71-1.71,3.53-1.29,5.83-4.73,5.68-8.49,0,0-.21-4.96-.23-4.96-.32-7.5,8.39-11.83,14.17-7.01,0,0,3.82,3.21,3.82,3.23,2.89,2.41,7.01,2.7,10.2.66,0,0,4.2-2.66,4.18-2.68,6.34-4.04,14.45,1.37,13.16,8.75l-.87,4.92c-.65,3.7,1.18,7.43,4.52,9.15,0,0,4.41,2.3,4.41,2.28,6.67,3.46,6.04,13.18-1.01,15.78,0,0-4.69,1.71-4.71,1.71-3.53,1.29-5.83,4.73-5.68,8.49,0,0,.21,4.96.23,4.96.32,7.5-8.39,11.83-14.17,7.01,0,0-3.82-3.21-3.82-3.23-2.89-2.41-7.01-2.7-10.2-.66,0,0-4.2,2.66-4.18,2.68Z"/>
          <path class="cls-10" d="M75.44,105.01c-5.43,3.46-12.38-1.16-11.28-7.5l.76-4.22c.55-3.17-1.01-6.36-3.87-7.84,0,0-3.76-1.97-3.78-1.96-5.72-2.96-5.18-11.3.87-13.52,0,0,4.03-1.46,4.03-1.44,3.04-1.1,5.01-4.04,4.86-7.27,0,0-.17-4.25-.19-4.23-.28-6.44,7.2-10.14,12.13-6,0,0,3.27,2.75,3.27,2.77,2.47,2.07,6.02,2.32,8.74.57,0,0,3.59-2.28,3.57-2.28,5.43-3.46,12.38,1.16,11.28,7.5l-.76,4.22c-.55,3.17,1.01,6.36,3.87,7.84,0,0,3.76,1.97,3.78,1.96,5.72,2.96,5.18,11.3-.87,13.52,0,0-4.03,1.46-4.03,1.44-3.04,1.1-5.01,4.04-4.86,7.27,0,0,.17,4.25.19,4.23.28,6.44-7.2,10.14-12.13,6,0,0-3.27-2.75-3.27-2.77-2.47-2.07-6.02-2.32-8.74-.57,0,0-3.59,2.28-3.57,2.28Z"/>
          <path class="cls-16" d="M77.04,100.57c-4.52,2.89-10.31-.97-9.4-6.25,0,0,.63-3.51.65-3.51.46-2.66-.84-5.3-3.23-6.55,0,0-3.13-1.65-3.13-1.63-4.77-2.47-4.31-9.42.72-11.26,0,0,3.36-1.22,3.36-1.2,2.53-.93,4.18-3.38,4.06-6.06,0,0-.13-3.53-.15-3.53-.23-5.36,6-8.45,10.12-5.01,0,0,2.72,2.3,2.72,2.32,2.07,1.73,5.01,1.92,7.27.47,0,0,2.98-1.88,2.98-1.9,4.52-2.89,10.31.97,9.4,6.25,0,0-.63,3.51-.65,3.51-.46,2.66.84,5.3,3.23,6.55,0,0,3.13,1.65,3.13,1.63,4.77,2.47,4.31,9.42-.72,11.26,0,0-3.36,1.22-3.36,1.2-2.53.93-4.18,3.38-4.06,6.06,0,0,.13,3.53.15,3.53.23,5.36-6,8.45-10.12,5.01,0,0-2.72-2.3-2.72-2.32-2.07-1.73-5.01-1.92-7.27-.47,0,0-2.98,1.88-2.98,1.9Z"/>
          <path class="cls-8" d="M78.61,96.14c-3.63,2.32-8.24-.78-7.5-4.99l.51-2.81c.36-2.13-.66-4.23-2.58-5.24,0,0-2.49-1.31-2.49-1.29-3.82-1.97-3.46-7.52.57-9,0,0,2.68-.97,2.7-.95,2.01-.74,3.34-2.7,3.25-4.84,0,0-.11-2.81-.13-2.81-.19-4.29,4.79-6.76,8.09-4.01,0,0,2.18,1.84,2.18,1.86,1.65,1.39,4.01,1.54,5.83.38,0,.02,2.39-1.5,2.37-1.52,3.63-2.32,8.24.78,7.5,4.99l-.51,2.81c-.36,2.13.66,4.23,2.58,5.24,0,0,2.49,1.31,2.49,1.29,3.82,1.97,3.46,7.52-.57,9,0,0-2.68.97-2.7.95-2.01.74-3.34,2.7-3.25,4.84,0,0,.11,2.81.13,2.81.19,4.29-4.79,6.76-8.09,4.01,0,0-2.18-1.84-2.18-1.86-1.65-1.39-4.01-1.54-5.83-.38,0-.02-2.39,1.5-2.37,1.52Z"/>
          <path class="cls-7" d="M80.21,91.7c-2.72,1.73-6.19-.57-5.62-3.74,0,0,.38-2.11.4-2.11.28-1.6-.49-3.19-1.94-3.93,0,0-1.86-.99-1.86-.97-2.85-1.48-2.58-5.64.44-6.74,0,0,2.01-.72,2.03-.7,1.52-.55,2.51-2.01,2.43-3.63.02,0-.08-2.11-.09-2.09-.13-3.21,3.59-5.07,6.06-3,0,0,1.63,1.39,1.63,1.41,1.23,1.04,3,1.16,4.37.3,0,.02,1.79-1.12,1.77-1.14,2.72-1.73,6.19.57,5.62,3.74,0,0-.38,2.11-.4,2.11-.28,1.6.49,3.19,1.94,3.93,0,0,1.86.99,1.86.97,2.85,1.48,2.58,5.64-.44,6.74,0,0-2.01.72-2.03.7-1.52.55-2.51,2.01-2.43,3.63-.02,0,.08,2.11.09,2.09.13,3.21-3.59,5.07-6.06,3,0,0-1.63-1.39-1.63-1.41-1.23-1.04-3-1.16-4.37-.3,0-.02-1.79,1.12-1.77,1.14Z"/>
          <path class="cls-5" d="M81.81,87.27c-1.8,1.16-4.12-.38-3.74-2.49,0,0,.27-1.41.28-1.41.19-1.06-.32-2.13-1.27-2.62.02,0-1.22-.65-1.22-.63-1.9-.99-1.73-3.76.28-4.5,0,0,1.35-.47,1.35-.46,1.01-.36,1.67-1.35,1.63-2.41.02,0-.04-1.39-.06-1.37-.09-2.15,2.39-3.38,4.03-1.99,0,0,1.08.93,1.08.95.82.68,2.01.78,2.91.21,0,.02,1.18-.72,1.16-.74,1.8-1.16,4.12.38,3.74,2.49,0,0-.27,1.41-.28,1.41-.19,1.06.32,2.13,1.27,2.62-.02,0,1.22.65,1.22.63,1.9.99,1.73,3.76-.28,4.5,0,0-1.35.47-1.35.46-1.01.36-1.67,1.35-1.63,2.41-.02,0,.04,1.39.06,1.37.09,2.15-2.39,3.38-4.03,1.99,0,0-1.08-.93-1.08-.95-.82-.68-2.01-.78-2.91-.21,0-.02-1.18.72-1.16.74Z"/>
          <path class="cls-2" d="M83.4,82.83c-.91.57-2.05-.19-1.86-1.23l.15-.7c.09-.53-.15-1.06-.63-1.31.02,0-.59-.32-.59-.3-.95-.49-.87-1.86.13-2.24,0,0,.68-.23.68-.21.51-.19.85-.66.82-1.2.02,0,0-.66-.04-.66-.04-1.06,1.18-1.69,2.01-.99,0,0,.53.47.53.49.42.34,1.01.4,1.46.11,0,.02.57-.34.55-.36.91-.57,2.05.19,1.86,1.23l-.15.7c-.09.53.15,1.06.63,1.31-.02,0,.59.32.59.3.95.49.87,1.86-.13,2.24,0,0-.68.23-.68.21-.51.19-.85.66-.82,1.2-.02,0,0,.66.04.66.04,1.06-1.18,1.69-2.01.99,0,0-.53-.47-.53-.49-.42-.34-1.01-.4-1.46-.11,0-.02-.57.34-.55.36Z"/>
          <path class="cls-13" d="M85.11,78.43h0v.06h0s.02.06,0,.06h0s-.02.02-.02.04h0s-.04.06-.06.04h0s-.02-.02-.04,0h0s-.06,0-.06-.02h0v-.06h0s-.02-.06,0-.06h0s.02-.02.02-.04h0s.04-.06.06-.04h0s.02.02.04,0h0s.06,0,.06.02Z"/>
        </g>
        <path d="M92.1,78.48l98.88-36.27c1.65-.61,2.39-2.51,1.61-4.06l-10.37-20.81c-.78-1.58-2.75-2.11-4.22-1.16l-88.51,57.08c-2.94,1.9-.68,6.44,2.6,5.22Z"/>
        <g>
          <path d="M124.25,141.09h11.41v3.38h-7.41v2.58h7.24v3.42h-7.24v2.81h7.41v3.38h-11.41v-15.57Z"/>
          <path d="M138.17,153.15c.7-.68,1.61-2.58,2.07-8.03l.34-4.04h11.26v12.08h1.86v6.38h-3.53v-2.87h-9.74v2.87h-3.49v-6.38h1.23ZM142.23,153.15h5.6v-8.56h-3.99l-.13,1.71c-.32,3.99-.91,6.02-1.46,6.87l-.02-.02Z"/>
          <path d="M159.47,141.09v9.72l6.3-9.72h4.16v15.57h-4.04v-10.16l-6.57,10.16h-3.87v-15.57s4.03,0,4.03,0Z"/>
          <path d="M182.79,150.4h-6.48v6.27h-4.03v-15.57h4.03v5.81h6.48v-5.81h4.03v15.57h-4.03v-6.27Z"/>
          <path d="M197.15,140.83c4.77,0,8.32,3.32,8.32,8.05s-3.55,8.05-8.32,8.05-8.34-3.32-8.34-8.05,3.57-8.05,8.34-8.05ZM197.15,144.38c-2.58,0-4.25,1.96-4.25,4.5s1.65,4.5,4.25,4.5,4.23-1.99,4.23-4.5-1.65-4.5-4.23-4.5Z"/>
          <path d="M207.37,141.07h7.8c3.49,0,5.41,2.35,5.41,5.18s-1.92,5.11-5.41,5.11h-3.78v5.28h-4.03v-15.57ZM214.62,144.45h-3.25v3.49h3.25c1.08,0,1.86-.68,1.86-1.73s-.8-1.77-1.86-1.77Z"/>
          <path d="M229.93,140.83c4.77,0,8.32,3.32,8.32,8.05s-3.55,8.05-8.32,8.05-8.34-3.32-8.34-8.05,3.57-8.05,8.34-8.05ZM229.93,144.38c-2.6,0-4.25,1.96-4.25,4.5s1.65,4.5,4.25,4.5,4.23-1.99,4.23-4.5-1.65-4.5-4.23-4.5Z"/>
          <path d="M240.28,141.07h11.41v3.49h-7.41v12.08h-4.03v-15.57h.02Z"/>
          <path class="cls-18" d="M161.13,145.86c-.93-.82-2.2-1.99-3.46-3.27-1.96,2.2-4.52,3.76-7.99,3.76-4.48,0-8.2-2.53-8.2-7.43,0-4.33,2.89-6.48,6.08-8.24-1.35-2.13-2.24-4.27-2.24-6.23,0-3.59,2.89-6.19,6.48-6.19,3.34,0,5.72,1.84,5.72,5.15,0,4.08-3.55,5.91-7.05,7.79,1.18,1.67,2.53,3.17,3.51,4.27,1.27,1.42,2.45,2.73,3.63,3.95,1.63-2.45,2.66-5.15,3.1-6.61l1.96.82c-.85,2.16-1.96,4.9-3.59,7.25,1.6,1.6,3.27,3.17,5.26,4.98h-3.19ZM156.28,141.17c-1.67-1.71-3.27-3.38-4.04-4.37-1.22-1.39-2.53-2.98-3.67-4.61-2.6,1.56-4.73,3.38-4.73,6.61,0,3.7,2.85,5.66,6,5.66,2.66,0,4.77-1.39,6.44-3.3v.02ZM149.47,129.68c3.1-1.63,5.91-3.13,5.91-6.19,0-2.24-1.56-3.42-3.55-3.42-2.32,0-4.23,1.84-4.23,4.44,0,1.6.78,3.42,1.88,5.18v-.02Z"/>
          <g>
            <path d="M130.46,108.83l-.93,7.9c-.44,3.55-1.37,4.41-2.83,4.41v3.55c3.42,0,6.08-1.35,6.82-7.67l.57-4.69h3.97v12.08h4.01v-15.57h-11.6Z"/>
            <path d="M156.28,112.32v-3.49h-11.41v15.57h10.39c.08-.32.11-.65.11-.99,0-1.1-.38-1.94-.99-2.51h-5.49v-2.64h7.24v-3.51h-7.24v-2.43h7.41-.02Z"/>
            <path d="M169.33,116.37c1.48-.32,2.66-1.63,2.66-3.57s-1.46-3.97-4.56-3.97h-8.83v15.57h9.1c3.06,0,4.58-1.96,4.58-4.22,0-1.96-1.31-3.55-2.96-3.8l.02-.02ZM162.63,112.21h3.89c.82,0,1.39.53,1.39,1.29s-.57,1.29-1.39,1.29h-3.89v-2.58ZM166.67,121h-4.04v-2.79h4.04c.99,0,1.54.63,1.54,1.41,0,.84-.59,1.41-1.54,1.41v-.02Z"/>
          </g>
          <polygon class="cls-19" points="149.56 120.64 149.54 120.64 149.54 120.66 149.56 120.64"/>
          <rect x="147.72" y="141.22" width="4.01" height="12.95"/>
        </g>
      </g>
    </g>
  </g>
</svg>