<svg xmlns="http://www.w3.org/2000/svg" fill="none" viewBox="0 0 114 150"><path fill="currentColor" d="M56.896 3.852c6.355 0 11.905 1.388 16.492 4.118 4.24 2.535 7.793 6.278 10.555 11.166 5.034 8.903 7.6 21.584 7.6 37.696 0 15.402-2.878 28.377-8.324 37.526-5.996 10.076-14.855 15.184-26.33 15.184-11.473 0-20.332-5.114-26.329-15.184-5.445-9.149-8.324-22.124-8.324-37.526 0-16.109 2.558-28.79 7.607-37.696 2.765-4.881 6.32-8.631 10.561-11.16 4.587-2.73 10.137-4.117 16.492-4.117m0-2.238c-28.078 0-36.862 25.318-36.862 55.21 0 29.893 10.76 54.949 36.856 54.949s36.856-25.062 36.856-54.955-8.768-55.21-36.85-55.21z"></path><path fill="currentColor" d="M32.97 67.24V56.563h3.694l2.973 7.992 2.954-7.992h3.562V67.24h-2.366v-8.164L40.69 67.24H38.26l-3.086-8.12v8.12zM56.107 87.738q0 2.467-1.347 3.925t-3.65 1.458q-2.645 0-3.995-1.557t-1.346-4.69v-1.742a10.6 10.6 0 0 1 .424-3.232 5.6 5.6 0 0 1 1.205-2.142 4.9 4.9 0 0 1 1.91-1.233c.815-.286 1.66-.475 2.517-.563q1.044-.11 1.931-.22l1.63-.199.24 2.36-1.75.198-1.888.22q-1.869.202-2.869 1.093-1 .892-1.02 2.935a3.5 3.5 0 0 1 1.533-1.26 5 5 0 0 1 2.051-.44 4.16 4.16 0 0 1 1.736.292 4.2 4.2 0 0 1 1.467.986q1.205 1.294 1.22 3.81m-5.075 3.324c.374.025.749-.043 1.09-.2a2.3 2.3 0 0 0 .873-.695 3.9 3.9 0 0 0 .664-2.394c0-1.014-.227-1.787-.673-2.315a2.4 2.4 0 0 0-.868-.616 2.35 2.35 0 0 0-1.045-.173 3 3 0 0 0-1.995.684 2.16 2.16 0 0 0-.62.782 2.2 2.2 0 0 0-.207.982v.429q.001 1.787.749 2.65a2.549 2.549 0 0 0 2.032.866"></path><mask id="LogoDesktopU_svg__a" width="114" height="17" x="0" y="131" maskUnits="userSpaceOnUse" style="mask-type:luminance"><path fill="#fff" d="M113.769 131.661H.214v15.664h113.555z"></path></mask><g fill="currentColor" mask="url(#LogoDesktopU_svg__a)"><path d="M.214 147.101v-10.736h3.729l2.992 8.052 2.978-8.052h3.592v10.736h-2.387v-8.208l-3.107 8.208H5.557l-3.11-8.163v8.163zM25.656 142.265h-7.423q.09 1.467.81 2.232a2.49 2.49 0 0 0 1.886.765q1.093 0 1.662-.516c.343-.285.6-.661.744-1.087l2.257.423a4.4 4.4 0 0 1-1.5 2.284q-1.15.955-3.208.955-2.388 0-3.756-1.487t-1.368-4.105a6.7 6.7 0 0 1 .405-2.405 5 5 0 0 1 1.095-1.752 4.6 4.6 0 0 1 1.62-1.066 5.4 5.4 0 0 1 2.004-.366q2.276 0 3.525 1.453 1.248 1.454 1.247 3.938zm-4.772-4.059a2.55 2.55 0 0 0-1.676.587q-.71.588-.93 1.718h4.971q-.088-1.063-.668-1.687-.58-.623-1.697-.618M34.795 143.309l2.32.309a4.65 4.65 0 0 1-1.51 2.674q-1.186 1.03-3.22 1.031-2.28 0-3.691-1.421-1.412-1.42-1.412-4.171a6.9 6.9 0 0 1 .393-2.427 5 5 0 0 1 1.071-1.752 4.4 4.4 0 0 1 1.62-1.055 5.7 5.7 0 0 1 2.035-.355 5.8 5.8 0 0 1 1.916.288c.504.169.972.432 1.38.777.369.322.673.713.896 1.152.223.432.382.895.472 1.374l-2.255.443a2.84 2.84 0 0 0-.724-1.302q-.548-.577-1.663-.577-1.25 0-1.95.899-.7.897-.7 2.54 0 1.6.679 2.519.678.921 1.95.921 1.116 0 1.662-.555c.362-.358.615-.813.73-1.312M38.226 138.627v-2.262h9.662v2.262h-3.575v8.474h-2.52v-8.474zM54.167 147.325q-2.344 0-3.788-1.488t-1.446-4.122q0-2.64 1.435-4.105t3.8-1.465q2.385 0 3.798 1.465t1.409 4.102q0 2.618-1.412 4.122t-3.796 1.491m0-2.153q1.312 0 2.014-.898.702-.899.7-2.562 0-1.665-.7-2.542-.7-.878-2.014-.876-1.27 0-2.003.876-.732.876-.734 2.542 0 1.66.744 2.562c.242.294.548.528.894.684.345.156.721.229 1.1.214M76.283 141.911q0 2.484-1.357 3.95t-3.685 1.464q-2.671 0-4.03-1.565-1.358-1.565-1.355-4.715v-1.752a10.7 10.7 0 0 1 .427-3.251c.241-.8.658-1.534 1.219-2.148a4.9 4.9 0 0 1 1.927-1.242 11.2 11.2 0 0 1 2.543-.567c.7-.072 1.356-.148 1.95-.222l1.637-.202.242 2.373-1.763.203-1.915.223q-1.885.2-2.89 1.098-1.007.899-1.01 2.937a3.53 3.53 0 0 1 1.545-1.266 5 5 0 0 1 2.068-.443q2.015 0 3.231 1.298t1.216 3.827m-5.103 3.349q1.314 0 1.982-.898.668-.899.668-2.405 0-1.53-.678-2.33-.678-.801-1.928-.801a3.06 3.06 0 0 0-2.014.687 2.2 2.2 0 0 0-.624.787 2.2 2.2 0 0 0-.208.988v.443q0 1.797.754 2.663.755.866 2.048.866M78.603 147.101v-10.736h2.517v3.327h2.495q1.839 0 2.835.91.995.91.996 2.707 0 1.819-.974 2.807-.975.987-2.9.985zm4.553-5.307h-2.034v3.195h2.034q1.073.001 1.49-.421.416-.423.415-1.243 0-.82-.425-1.175-.426-.356-1.48-.356m5.628 5.302v-10.731h2.519v10.736zM93.228 138.627v-2.262h9.663v2.262h-3.575v8.474h-2.518v-8.474zM104.805 147.101v-10.736h2.526v3.327h2.559q1.865 0 2.869.91 1.003.91 1.017 2.707 0 1.819-.975 2.807-.975.985-2.946.985zm4.562-5.307h-2.035v3.195h2.035q1.072.001 1.49-.421.416-.423.415-1.243 0-.82-.427-1.175c-.285-.237-.785-.356-1.478-.356"></path></g></svg>