<?xml version="1.0" encoding="UTF-8"?> <svg xmlns="http://www.w3.org/2000/svg" width="90" height="40" viewBox="0 0 90 40" fill="none"><path fill-rule="evenodd" clip-rule="evenodd" d="M27.0025 19.2931C27.0025 28.5959 23.1986 32.4411 13.8958 32.4411C4.5929 32.4411 0.789062 28.5959 0.789062 19.2931C0.789062 9.94885 4.5929 6.14502 13.8958 6.14502C23.1986 6.14502 27.0025 9.94885 27.0025 19.2931ZM23.7775 19.2931C23.7775 11.7681 21.3794 9.37001 13.8958 9.37001C6.41213 9.37001 4.01406 11.7681 4.01406 19.2931C4.01406 26.7767 6.41213 29.2161 13.8958 29.2161C21.3794 29.2161 23.7775 26.7767 23.7775 19.2931Z" fill="#202025"></path><path d="M35.768 13.2564V32.1929H32.543V7.96408C32.543 6.47563 34.3622 5.77274 35.3545 6.84773L52.6371 25.7015C53.0093 26.1563 53.7535 25.9083 53.7535 25.2881V6.39293H56.9785V30.5804C56.9785 32.0688 55.1593 32.7717 54.167 31.6967L36.8843 12.8429C36.4708 12.3881 35.768 12.6775 35.768 13.2564Z" fill="#202025"></path><path d="M85.2588 9.61807V6.39307H65.9502C64.5444 6.39307 63.3867 7.55076 63.3867 8.95653V29.5882C63.3867 31.0353 64.5444 32.193 65.9502 32.193H85.2588V28.968H67.2319C66.9011 28.968 66.6117 28.6786 66.6117 28.3065V21.1536C66.6117 20.7815 66.9011 20.4921 67.2319 20.4921H83.977V17.5565H67.2319C66.9011 17.5565 66.6117 17.2671 66.6117 16.895V10.2383C66.6117 9.90749 66.9011 9.61807 67.2319 9.61807H85.2588Z" fill="#202025"></path></svg> 