<svg xmlns="http://www.w3.org/2000/svg" viewBox="0 0 482 161"><defs><style>.cls-1{fill:#fff;}</style></defs><title>LOGO_white</title><polygon class="cls-1" points="73.35 91.54 17.23 92.55 73.35 93.45 393.54 93.45 467.85 92.38 393.54 91.54 73.35 91.54"/><path class="cls-1" d="M84.16,124.7h2.46V109H84.16v6.26h-9.4V109H72.3V124.7h2.46v-6.94h9.4Zm23-15.66H95.12V124.7h12.3v-2.33H97.53v-4.61h8.32v-2.32H97.53v-4.07h9.67Zm18.7,12.1,1.66,3.55h2.68L122.9,109h-3.22l-7.34,15.66H115l1.66-3.55Zm-8.18-2.24,3.58-7.67,3.58,7.67ZM136.05,109V124.7h10.51v-2.41h-8V109Zm12.75,0v2.37h5.77V124.7h2.55V111.41h5.77V109Zm32.44,15.66h2.46V109h-2.46v6.26h-9.4V109h-2.46V124.7h2.46v-6.94h9.4Zm28.41-2.12a5.9,5.9,0,0,1-4.27-1.61,5.89,5.89,0,0,1,0-8.23,5.88,5.88,0,0,1,4.25-1.61,6.62,6.62,0,0,1,3.22.78,5.53,5.53,0,0,1,2.17,2.15l2.12-1.23a8,8,0,0,0-2.93-2.91,8.6,8.6,0,0,0-4.56-1.21,8.34,8.34,0,0,0-6.08,2.39,8.1,8.1,0,0,0,0,11.54,8.31,8.31,0,0,0,6.06,2.39,8.64,8.64,0,0,0,4.56-1.21,7.91,7.91,0,0,0,2.93-2.91L215,119.69a5.46,5.46,0,0,1-2.17,2.15,6.58,6.58,0,0,1-3.22.79Zm24.74-1.43,1.66,3.55h2.68L231.4,109h-3.22l-7.34,15.66h2.68l1.65-3.55Zm-8.19-2.24,3.58-7.67,3.58,7.67ZM256.32,110a7.56,7.56,0,0,0-4.16-1h-7.6V124.7H247v-5.64h4.27l4.43,5.64h3l-4.81-6a6.31,6.31,0,0,0,2.62-1.09,4.91,4.91,0,0,0,1.45-1.68,4.35,4.35,0,0,0,.4-1.84,4.55,4.55,0,0,0-2.1-4m-1.63,6.15a5.37,5.37,0,0,1-2.55.49H247v-5.28h5.15a5.38,5.38,0,0,1,2.55.49,2.57,2.57,0,0,1,0,4.3M278.22,109H266.14V124.7h12.3v-2.33h-9.89v-4.61h8.32v-2.32h-8.32v-4.07h9.66Zm29.89,1a7.54,7.54,0,0,0-4.16-1h-7.61V124.7h2.46v-5.64h4.27l4.43,5.64h3l-4.81-6a6.28,6.28,0,0,0,2.62-1.09,5,5,0,0,0,1.45-1.68,4.4,4.4,0,0,0,.4-1.84,4.54,4.54,0,0,0-2.1-4m-1.63,6.15a5.4,5.4,0,0,1-2.55.49h-5.15v-5.28h5.15a5.4,5.4,0,0,1,2.55.49,2.57,2.57,0,0,1,0,4.3M330,109H317.93V124.7h12.3v-2.33h-9.88v-4.61h8.32v-2.32h-8.32v-4.07H330Zm12.86,13.65a6,6,0,0,1-5.14-2.24l-2.24,1.34a9,9,0,0,0,7.38,3.24,8.4,8.4,0,0,0,4.38-1.07,4.36,4.36,0,0,0,2.33-4,4.19,4.19,0,0,0-.6-2.3,3.8,3.8,0,0,0-1.54-1.36,10.13,10.13,0,0,0-2.09-.67l-1.14-.2-1.14-.16-1.1-.13-1-.16a3.51,3.51,0,0,1-1.55-.61,1.32,1.32,0,0,1-.6-1.14,1.86,1.86,0,0,1,1-1.68,5.63,5.63,0,0,1,2.79-.56,5.8,5.8,0,0,1,4.5,1.81l2.24-1.27a8.79,8.79,0,0,0-6.71-2.88,7.76,7.76,0,0,0-4.16,1,4.25,4.25,0,0,0-2.1,3.78,3.51,3.51,0,0,0,.6,2.13,3.82,3.82,0,0,0,1.54,1.25,10.92,10.92,0,0,0,2.08.62l1.14.21c.38.07.76.12,1.14.17.76.09,1.45.2,2.08.34a3.59,3.59,0,0,1,1.55.71,1.63,1.63,0,0,1,.6,1.3,2,2,0,0,1-1,1.75,5.94,5.94,0,0,1-3.29.72Zm20.58-.11a5.9,5.9,0,0,1-4.27-1.61,5.88,5.88,0,0,1,0-8.23,6.41,6.41,0,0,1,8.5,0,5.89,5.89,0,0,1,0,8.23,5.92,5.92,0,0,1-4.27,1.61Zm0,2.46a8.26,8.26,0,0,0,6.06-2.37,8.11,8.11,0,0,0,0-11.54,9,9,0,0,0-12.17,0,8.1,8.1,0,0,0,0,11.54,8.32,8.32,0,0,0,6.06,2.39Zm27.47-15a7.54,7.54,0,0,0-4.16-1h-7.61V124.7h2.46v-5.64h4.27l4.43,5.64h3l-4.81-6a6.25,6.25,0,0,0,2.62-1.09,4.91,4.91,0,0,0,1.45-1.68,4.3,4.3,0,0,0,.4-1.84,4.54,4.54,0,0,0-2.1-4m-1.63,6.15a5.4,5.4,0,0,1-2.55.49h-5.15v-5.28h5.15a5.41,5.41,0,0,1,2.55.49,2.57,2.57,0,0,1,0,4.3m9.44-7.16v2.37h5.77V124.7H407V111.41h5.77V109Z"/><path class="cls-1" d="M156.75,55.28c2.4-2.51,4.8-5,4.8-9.2,0-2.55-1.84-7.66-10.22-7.66-2.35,0-4.34.15-5.57.15-.25,0-3.47-.15-5.77-.15-.56,0-.82.1-.82.41s.2.31.67.31a9.45,9.45,0,0,1,1.48.15c1.69.36,2.09,1.18,2.2,2.92s.1,3.06.1,11v9c0,4.91,0,8.94-.26,11.09-.21,1.48-.41,2.66-1.43,2.86a5.44,5.44,0,0,1-1.23.15c-.66,0-.77.21-.77.36s.25.36.82.36c1.79,0,3.37-.15,5-.15.21,0,1.64.05,3.12.15s3.12.15,3.68.15c8.74,0,13-5.68,13-11.14,0-6-5.06-9.61-8.84-10.78m-9-14.61c0-.31.15-.46.61-.56a11.47,11.47,0,0,1,2.45-.26c5,0,6.9,4.55,6.9,8.79a7.9,7.9,0,0,1-1.84,5.16c-1.07,1.22-1.79,1.33-4.65,1.33a18.39,18.39,0,0,1-3.12-.2c-.26-.11-.36-.21-.36-.57ZM154,75.57a12,12,0,0,1-4.5-.77c-1.59-.77-1.59-1.48-1.74-4-.05-.77-.05-7.1-.05-11V56.86c0-.25.1-.35.31-.35.77,0,3.32,0,4,.1a8.45,8.45,0,0,1,4.24,1.48c3.93,2.71,5,7.15,5,10.22,0,5.77-4.45,7.25-7.2,7.25"/><path class="cls-1" d="M121.58,38.42c-2.35,0-5.31.15-6.44.15-.41,0-3.47-.15-5.78-.15-.56,0-.82.1-.82.41s.2.3.41.3a9.93,9.93,0,0,1,1.74.15c1.69.36,2.09,1.18,2.2,2.92s.1,3.06.1,11v9c0,4.91,0,8.94-.26,11.09-.21,1.48-.46,2.6-1.48,2.81a7.93,7.93,0,0,1-1.53.2c-.31,0-.41.15-.41.31,0,.31.26.41.82.41,1.53,0,4.75-.16,4.9-.16s3.48.16,6.29.16c.56,0,.82-.16.82-.41s-.1-.31-.41-.31a22.45,22.45,0,0,1-2.3-.2c-1.53-.21-1.84-1.33-2-2.81-.26-2.14-.26-6.18-.26-11.09v-21c0-.51.1-.87.41-1a6.18,6.18,0,0,1,2.19-.3,8.87,8.87,0,0,1,7,2.55A10.54,10.54,0,0,1,129.65,50c0,5.36-3.88,8.74-8.84,8.74-1.07,0-1.38,0-1.38.46,0,.26.31.36.56.36a7.84,7.84,0,0,0,1.07,0c7.26,0,12.57-4.91,12.57-11.55a9.32,9.32,0,0,0-2.55-6.69c-.82-.77-3.12-2.91-9.5-2.91"/><path class="cls-1" d="M70.07,76.27A15.44,15.44,0,0,1,67.86,76c-1.65-.28-2.16-1.19-2.33-3.35-.23-2.38-.23-6.64-.23-12.09v-10c0-8.86,0-10.5.11-12.32.11-2.5.74-2.84,2.16-3.18a9.54,9.54,0,0,1,1.08-.17c.57-.11.74-.23.74-.45s-.06-.34-.85-.34c-1.25,0-5.56.17-5.85.17H35.22c-.85,0-4.09-.17-6.19-.17-.62,0-1,.11-1,.34s.17.4.68.45,1.13.06,1.76.17c1.59.34,2.27,1.08,2.38,3.23.12,1.82.12,3.29.12,12.15V60.6c0,5.45-.06,9.31-.23,11.7s-.62,3.58-1.93,3.8a11.61,11.61,0,0,1-1.25.17c-.62.11-.68.29-.68.46s.4.34,1,.34c1.7,0,4.83-.17,5.28-.17.28,0,4.77.17,7.15.17.79,0,1-.17,1-.34s-.17-.4-.85-.46C42,76.22,41,76.16,40.21,76c-1.71-.28-2.1-1.53-2.21-3.46-.17-2.38-.23-6.36-.23-11.81v-23c0-.91.28-1,1-1.08s.8-.06,9.14-.06c8.63,0,11.47,0,12.32.06a.38.38,0,0,1,.34.39V60.2c0,5.45-.06,10.27-.23,12.66s-1,3.07-1.93,3.24a10,10,0,0,1-1.13.17c-.8.06-.85.22-.85.4s.11.4.91.4c1.76,0,5-.17,5.51-.17s4.6.17,7.27.17c.51,0,.74-.17.74-.4s-.11-.34-.74-.4"/><path class="cls-1" d="M101.14,70.15c-.26,0-.36.21-.46.77-.41,2.2-1,3.27-2.6,3.78a29.13,29.13,0,0,1-6,.46,12.36,12.36,0,0,1-4.24-.46c-1.28-.51-1.58-1.63-1.69-3.73-.05-1.07,0-7,0-8.74v-4.5a.32.32,0,0,1,.36-.36c.87,0,7.35.1,8.73.26,1.84.2,2.45.92,2.66,1.69a4.63,4.63,0,0,1,.21,1.43c0,.41.05.82.36.82s.31-.25.36-.77c0-.72,0-1.89.2-3.47s.41-2.56.41-2.86-.1-.41-.25-.41-.36.21-.61.51c-.51.61-1.18.77-2.55.87-1.18.1-8.88.1-9.54.1-.26,0-.31-.15-.31-.51V40.92c0-.36.1-.52.31-.52.56,0,6.13.05,7,.16,2.25.2,4.74.72,5.1,1.89a5.1,5.1,0,0,1,.26,1.69c0,.41.1.67.41.67s.36-.36.41-.87c.1-1.33.15-2.3.21-3.07a22,22,0,0,1,.41-2.4c0-.26-.05-.46-.2-.46a1.26,1.26,0,0,0-.56.2,8.36,8.36,0,0,1-2.35.31c-1.17.05-12.76.05-13.12.05-3.22-.15-4.6-.15-5.77-.15-.56,0-.82.1-.82.41s.31.25.66.3a13,13,0,0,1,1.48.15c1.69.36,2.09,1.18,2.2,2.92s.1,3.06.1,11v9c0,4.55-.05,7.15-.1,9.15-.1,3.83-.77,4.55-1.84,4.8a6.67,6.67,0,0,1-1.18.16c-.31.05-.56.15-.56.3,0,.31.26.41.82.41,1.33,0,2.55-.16,3.78-.16,2,0,4.34.1,6.39.16s5.1.15,8.88.15c2,0,2.4,0,2.76-1.33a49.94,49.94,0,0,0,.66-5c0-.36,0-.77-.31-.77"/><path class="cls-1" d="M378.15,76.33a21.72,21.72,0,0,1-2.3-.2c-1.53-.21-1.84-1.33-2-2.81-.26-2.15-.26-6.18-.26-11.09v-9c0-8,0-9.4.1-11,.1-1.79.51-2.66,1.89-2.92a8,8,0,0,1,1.28-.15c.2,0,.41-.1.41-.3s-.25-.41-.82-.41c-1.53,0-4.75.15-5,.15s-3.48-.15-5.77-.15c-.56,0-.82.1-.82.41s.21.3.41.3a9.89,9.89,0,0,1,1.74.15c1.69.36,2.1,1.18,2.2,2.92s.1,3.06.1,11v1.07a.27.27,0,0,1-.31.31H350.18a.27.27,0,0,1-.31-.31V53.24c0-8,0-9.4.1-11,.1-1.79.51-2.66,1.89-2.92a8,8,0,0,1,1.28-.15c.2,0,.41-.1.41-.3s-.26-.41-.82-.41c-1.53,0-4.75.15-5,.15s-3.47-.15-5.77-.15c-.56,0-.82.1-.82.41s.21.3.41.3a10,10,0,0,1,1.74.15c1.69.36,2.09,1.18,2.2,2.92s.1,3.06.1,11v9c0,4.91,0,8.94-.25,11.09-.21,1.48-.46,2.6-1.49,2.81a7.72,7.72,0,0,1-1.53.2c-.3,0-.41.15-.41.31,0,.31.25.41.82.41,1.53,0,4.75-.15,5-.15S351.2,77,354,77c.56,0,.82-.15.82-.41s-.1-.31-.41-.31a21.74,21.74,0,0,1-2.3-.2c-1.53-.21-1.84-1.33-2-2.81-.26-2.15-.26-6.18-.26-11.09V56.86a.27.27,0,0,1,.31-.3H369a.3.3,0,0,1,.31.3v5.37c0,4.91,0,8.94-.26,11.09-.2,1.48-.46,2.6-1.48,2.81a7.72,7.72,0,0,1-1.53.2c-.31,0-.41.15-.41.31,0,.31.25.41.82.41,1.53,0,4.75-.15,5-.15s3.47.15,6.28.15c.56,0,.82-.15.82-.41s-.11-.31-.41-.31"/><path class="cls-1" d="M336,76.33c-.82-.05-1.74-.15-2-.2-1.64-.26-2-1.64-2.1-5.36-.15-9.55-.15-18.65-.15-28.21,0-4.45-.25-4.85-.77-4.85s-1.43.82-3.32,3.11c-4.57,7-13.62,20.44-20.06,29.29l-.1-25.62c.1-4.34.46-4.9,1.89-5.21a9.54,9.54,0,0,1,1.33-.15c.56-.05.67-.21.67-.41s-.26-.31-.87-.31c-1.43,0-3.47.15-5.11.15-.82,0-5.46-.15-7-.15-.56,0-1,0-1,.36,0,.2.15.3.56.36s2.39.05,3.06.15c1.64.31,2.2.67,2.25,6.29.15,9.81,0,21.31,0,29.74,0,2,.15,2.46.66,2.46.26,0,.82-.26,1.89-1.43C307.91,74,325,47.51,327.67,44.19c-.1,8.74-.05,17.27-.2,25.65-.05,3.83-.25,6-1.74,6.28a14.58,14.58,0,0,1-1.48.2c-.66,0-.77.15-.77.41s.15.31.77.31c1.84,0,3.47-.15,4.6-.15.82,0,5.31.15,7.15.15.56,0,.77-.05.77-.36s-.15-.31-.77-.36"/><path class="cls-1" d="M202.26,76.33c-.41,0-1.11.26-1.66-.33s-.71-1.1-2.55-5.65c-3.12-7.77-11.14-28.87-11.91-30.81-.61-1.58-.82-1.84-1.12-1.84s-.51.3-1.12,2l-6.55,17.91c-.69-.16-2-.91-2.39-.31s1.85,1.77,1.85,1.77L172.6,71.47c-.92,2.56-1.63,4.76-3.17,4.76-.41,0-.87.1-1.22.1s-.72.1-.72.31.3.41,1,.41c2.4,0,3.79-.15,4.35-.15s2.61.15,3.83.15c.46,0,.92-.1.92-.41s-.15-.31-.67-.31h-.46c-.87,0-1.84-.46-1.84-1.48a10.8,10.8,0,0,1,.71-3.42l3.88-11.65a28.06,28.06,0,0,1,14.07,10.08l1.82,5c.31.82,0,1.28-.3,1.38s-.36.15-.36.36.56.31,1.53.36c3.52.1,5.07.1,5.84.1.56,0,1-.1,1-.41s-.25-.31-.56-.31m-14.37-14a29.7,29.7,0,0,0-8.17-4.09L183.8,46q.38-1.15.77,0l7.19,19.71a30.06,30.06,0,0,0-3.87-3.35"/><path class="cls-1" d="M452,42.2c.1-1.79.51-2.66,1.89-2.92.61-.1,2.34-.15,2.7-.15s.41-.1.41-.3-.26-.41-.82-.41c-1.53,0-5.81.15-6.42.15-1.28,0-3.12-.15-5.42-.15-3.58,0-6.54.71-8.58,2.14a10.19,10.19,0,0,0-4.8,8.69c0,4,2.43,10,10.2,10.17-2.06-.05-3.58,3.88-5.21,6-1.89,2.5-3.73,4.91-5.52,7.05-2.3,2.81-2.36,3.58-4.66,3.78-.76,0-1,0-1.63,0s-.82.21-.82.31c0,.3.3.41.92.41l1.08.05c4.19,0,6.44-.67,8.18-2.25a30.76,30.76,0,0,0,5.11-6.44c1.33-1.84,4.24-6.13,5.21-7.15a3.26,3.26,0,0,1,1-.82,1,1,0,0,1,.51-.1,8.3,8.3,0,0,0,2.07.1c.25,0,.36.05.36.36v1.53c0,4.85,0,8.89-.25,11-.21,1.48-.51,2.66-1.53,2.86a7.07,7.07,0,0,1-1.33.16c-.46,0-.56.15-.56.31,0,.31.25.41.82.41,1.53,0,4.65-.16,4.91-.16s3.52.16,6.33.16c.57,0,.77-.16.77-.41s-.15-.31-.61-.31c-.31,0-1.38-.1-2.09-.2-1.53-.21-1.84-1.33-2-2.81-.25-2.14-.25-6.18-.25-11.09v-9c0-8,0-9.4.1-11m-4.11,15.53c0,.21,0,.56-.31.67a6.54,6.54,0,0,1-2.14.2c-5.37,0-9.86-3.37-9.86-9.2,0-6.08,3.73-9.2,9.4-9.2a6.18,6.18,0,0,1,2.6.31.52.52,0,0,1,.31.51Z"/><path class="cls-1" d="M296.94,76.27a7.45,7.45,0,0,1-2.22-.34c-1.19-.34-2.84-1.25-4.88-6.3-3.46-8.63-12.38-32.08-13.23-34.23-.68-1.76-.91-2-1.25-2s-.57.34-1.25,2.21L259.8,70.82c-1,2.84-2.16,5-4.77,5.34a11.55,11.55,0,0,1-1.36.11c-.51,0-.8.11-.8.34s.34.46,1.08.46c2.67,0,5.79-.17,6.41-.17s2.9.17,4.26.17c.51,0,1-.12,1-.46s-.17-.34-.74-.34h-.51c-1,0-2-.51-2-1.65a12.08,12.08,0,0,1,.79-3.81l10.79-28q.43-1.28.85,0l11.75,31.79c.34.91,0,1.42-.34,1.53s-.4.17-.4.4.63.34,1.7.4c3.92.12,8.06.12,8.91.12.62,0,1.14-.12,1.14-.46s-.28-.34-.62-.34"/><path class="cls-1" d="M236.62,76.33c-.31,0-1.38-.1-2.1-.2-1.53-.2-1.84-1.33-2-2.81-.25-2.15-.25-6.18-.25-11.09v-9c0-8,0-9.4.1-11,.1-1.79.51-2.66,1.89-2.92a8,8,0,0,1,1.28-.15c.2,0,.41-.1.41-.31s-.26-.41-.82-.41c-1.53,0-4.39.15-5,.15-1.28,0-3.12-.15-5.42-.15-3.57,0-6.54.72-8.58,2.14a10.19,10.19,0,0,0-4.8,8.69c0,4,2.43,10,10.2,10.17-2.05,0-3.58,3.88-5.21,6-1.89,2.5-3.73,4.91-5.52,7.05-2.3,2.81-2.36,3.57-4.66,3.78-.77,0-1,0-1.63,0s-.82.21-.82.31c0,.31.31.41.92.41l1.08.05c4.19,0,6.44-.67,8.18-2.25,1.43-1.28,2.71-2.81,5.11-6.44,1.33-1.84,4.24-6.13,5.21-7.15a3.2,3.2,0,0,1,1-.82,1,1,0,0,1,.51-.1,8.26,8.26,0,0,0,2.07.1c.26,0,.36,0,.36.36v1.53c0,4.85,0,8.89-.25,11-.2,1.48-.51,2.66-1.53,2.86a7.18,7.18,0,0,1-1.33.15c-.46,0-.56.15-.56.31,0,.31.25.41.82.41,1.53,0,4.65-.15,4.91-.15s3.53.15,6.33.15c.56,0,.77-.15.77-.41s-.15-.31-.61-.31m-8.36-18.6c0,.2,0,.56-.31.66a6.44,6.44,0,0,1-2.15.21c-5.36,0-9.86-3.37-9.86-9.2,0-6.08,3.73-9.2,9.4-9.2a6.2,6.2,0,0,1,2.6.31.53.53,0,0,1,.31.51Z"/><path class="cls-1" d="M421.09,76.33c-.82-.05-1.74-.15-2-.2-1.64-.26-2-1.64-2.1-5.36-.15-9.55-.15-18.65-.15-28.21,0-4.45-.26-4.85-.77-4.85s-1.43.82-3.32,3.11c-4.57,7-13.62,20.44-20.06,29.29l-.1-25.62c.1-4.34.46-4.9,1.89-5.21a9.58,9.58,0,0,1,1.33-.15c.56-.05.67-.21.67-.41s-.25-.31-.87-.31c-1.43,0-3.47.15-5.11.15-.82,0-5.46-.15-7-.15-.56,0-1,0-1,.36,0,.2.15.3.56.36s2.39.05,3.05.15c1.64.31,2.2.67,2.25,6.29.15,9.81,0,21.31,0,29.74,0,2,.15,2.46.66,2.46.25,0,.82-.26,1.89-1.43C393,74,410.1,47.51,412.75,44.19c-.1,8.74-.05,17.27-.2,25.65-.05,3.83-.26,6-1.74,6.28a14.58,14.58,0,0,1-1.48.2c-.66,0-.77.15-.77.41s.15.31.77.31c1.84,0,3.47-.15,4.6-.15.82,0,5.31.15,7.16.15.56,0,.77-.05.77-.36s-.15-.31-.77-.36"/></svg>