<?xml version="1.0" encoding="UTF-8"?>
<svg id="_Слой_2" data-name="Слой 2" xmlns="http://www.w3.org/2000/svg" viewBox="0 0 167.15 107.75">
  <defs>
    <style>
      .cls-1 {
        fill: #383838;
      }
    </style>
  </defs>
  <g id="_Слой_1-2" data-name="Слой 1">
    <g>
      <g>
        <path class="cls-1" d="M13.52,107.75l-8.82-16.74h-.19v16.74H0v-37.28h4.51v16.7h.09l8.35-16.7h4.36v.14l-9.06,18.26,9.77,18.78v.09h-4.51Z"/>
        <path class="cls-1" d="M25.8,107.75l3.08-10.96-9.44-26.14v-.19h4.84l6.21,19.73h.19l5.74-19.73h4.84v.14l-11,37.14h-4.46Z"/>
        <path class="cls-1" d="M47.75,85.97l-5.74,21.77h-4.74l10.34-37.57h.19l11,37.57h-4.55l-6.4-21.77h-.1Z"/>
        <path class="cls-1" d="M67.27,70.51v14.75c1.52,0,2.95.25,4.29.76,1.33.51,2.48,1.23,3.45,2.18.97.95,1.74,2.13,2.31,3.53s.86,3.01.86,4.81c0,3.86-1.02,6.69-3.05,8.49-2.03,1.8-4.65,2.7-7.86,2.7h-4.74v-37.24h4.74ZM67.27,90.05v13.04c1.85,0,3.37-.54,4.56-1.61s1.79-2.75,1.79-5.03-.59-3.87-1.77-4.89c-1.18-1.01-2.71-1.52-4.59-1.52Z"/>
        <path class="cls-1" d="M88.84,107.75h-4.74v-33.44h-7.26v-3.84h19.21v3.84h-7.21v33.44Z"/>
        <path class="cls-1" d="M104.31,107.75l3.08-10.96-9.44-26.14v-.19h4.84l6.21,19.73h.19l5.74-19.73h4.84v.14l-11,37.14h-4.46Z"/>
        <path class="cls-1" d="M128.38,107.75h-4.74v-37.28h4.74c3.21,0,5.83.92,7.86,2.75,2.03,1.83,3.05,4.66,3.05,8.49,0,1.8-.29,3.4-.86,4.79-.57,1.39-1.34,2.56-2.31,3.51-.97.95-2.12,1.68-3.45,2.18-1.33.51-2.76.76-4.29.76v14.8ZM128.38,88.2c1.88,0,3.41-.51,4.59-1.52,1.18-1.01,1.77-2.66,1.77-4.93s-.6-3.95-1.79-5.03-2.72-1.61-4.56-1.61v13.09Z"/>
        <path class="cls-1" d="M147.89,70.51v14.75c1.52,0,2.94.24,4.27.73,1.33.49,2.47,1.22,3.44,2.18.96.97,1.73,2.14,2.3,3.53.57,1.39.85,2.99.85,4.79,0,3.83-1,6.66-3.01,8.49-2.01,1.83-4.62,2.75-7.85,2.75h-4.74v-37.24h4.74ZM147.89,90.05v13c1.83,0,3.35-.54,4.55-1.61,1.2-1.07,1.8-2.75,1.8-5.03s-.59-3.87-1.78-4.86c-1.19-1-2.71-1.49-4.58-1.49ZM167.15,107.75h-4.74v-37.33h4.74v37.33Z"/>
      </g>
      <path class="cls-1" d="M35.35.19h7.46v58.46H0V.19h7.46v52.42h10.29V.19h7.46v52.42h10.14V.19Z"/>
      <path class="cls-1" d="M64.58,58.73h-7.46V6.15h-11.41V.11h30.2v6.04h-11.33v52.57Z"/>
      <path class="cls-1" d="M148.36,6.15v13.05c3.48,0,6.41.66,8.8,1.98,2.39,1.32,4.33,2.97,5.82,4.96,1.49,1.99,2.56,4.13,3.21,6.41.65,2.29.97,4.4.97,6.34,0,2.04-.37,4.23-1.12,6.56-.75,2.34-1.91,4.49-3.5,6.45-1.59,1.97-3.63,3.59-6.12,4.89-2.49,1.29-5.47,1.94-8.95,1.94h-6.12V.11h23.27v6.04h-16.26ZM148.81,26.51v25.35c1.69,0,3.24-.35,4.66-1.04,1.42-.69,2.63-1.64,3.65-2.83s1.8-2.58,2.35-4.18c.55-1.59.82-3.28.82-5.07,0-1.59-.32-3.13-.97-4.62-.65-1.49-1.49-2.8-2.54-3.91-1.04-1.12-2.26-2.01-3.65-2.68-1.39-.67-2.83-1.01-4.33-1.01Z"/>
      <g>
        <path class="cls-1" d="M120.39,0h-26.51c-8.88,0-16.08,7.72-16.08,17.25v24.18c0,9.53,7.2,17.25,16.08,17.25h26.51c8.88,0,16.08-7.72,16.08-17.25v-24.18c0-9.53-7.2-17.25-16.08-17.25ZM125.24,29.01l-32.07,15.37v-6.36l5.4-3.45v-10.87l-5.4-2.78v-6.62l32.07,14.44v.27Z"/>
        <polygon class="cls-1" points="112.26 29.15 112.26 29.01 102.93 24.79 102.8 24.79 102.8 33.37 102.93 33.37 112.26 29.15"/>
      </g>
    </g>
  </g>
</svg>