<svg width="220" height="31" viewBox="0 0 220 31" fill="none" xmlns="http://www.w3.org/2000/svg">
  <path
    d="M183.48 30.0024C180.682 30.0024 178.437 29.6027 176.81 28.8175C175.177 28.0295 173.927 27.0317 173.093 25.8496C172.263 24.6703 171.727 23.3777 171.506 22.0029C171.288 20.6535 171.177 19.3978 171.177 18.2724V0.490234H175.313V19.3723C175.313 19.9137 175.327 20.4608 175.353 20.9965C175.378 21.521 175.472 22.0454 175.63 22.5585C175.789 23.0716 176.03 23.5988 176.345 24.1261C176.659 24.6505 177.127 25.1834 177.734 25.7107C178.505 26.4023 179.327 26.9239 180.186 27.2669C181.042 27.6099 182.04 27.7829 183.154 27.7829C184.463 27.7829 185.733 27.5929 186.932 27.2187C188.117 26.8502 189.2 26.1416 190.15 25.1126C190.677 24.5314 191.085 23.9447 191.36 23.3664C191.638 22.7853 191.845 22.19 191.978 21.5918C192.111 20.9937 192.191 20.3871 192.219 19.789C192.248 19.1767 192.259 18.5672 192.259 17.9804V0.490234H194.476V19.3326C194.476 20.7924 194.238 22.1843 193.767 23.4713C193.296 24.761 192.585 25.9034 191.658 26.8729C190.728 27.8424 189.563 28.6163 188.194 29.169C186.828 29.7218 185.24 30.0024 183.48 30.0024Z"
    fill="#1D1D1C"/>
  <path d="M164.561 30.0026L141.517 8.27736V29.5122H139.218V0L162.265 21.7224V0.490405H164.561V30.0026Z"
        fill="#1D1D1C"/>
  <path d="M201.115 29.512V0.490234H220V3.15486H205.251V12.9942H217.916V15.2903H205.251V26.8446H220V29.512H201.115Z"
        fill="#1D1D1C"/>
  <path
    d="M116.447 29.512V0.490234H135.335V3.15486H120.583V12.9942H133.251V15.2903H120.583V26.8446H135.335V29.512H116.447Z"
    fill="#1D1D1C"/>
  <path d="M98.2659 29.512L86.1191 0.490234H90.9863L100.732 23.8851L110.194 0.490234H112.771L100.999 29.512H98.2659Z"
        fill="#1D1D1C"/>
  <path
    d="M43.3716 29.512V0.490234H54.4072C56.006 0.490234 57.4205 0.72835 58.6111 1.19891C59.8045 1.67231 60.8108 2.31296 61.6045 3.10384C62.3982 3.89756 62.9992 4.84435 63.3904 5.91871C63.7787 6.9874 63.9743 8.11561 63.9743 9.28068L63.9715 9.36572L63.9743 9.44509C63.9743 10.6073 63.7787 11.7384 63.3904 12.8071C62.9992 13.8814 62.3982 14.8282 61.6045 15.6219C60.8136 16.4128 59.8045 17.0563 58.6111 17.5269C57.4205 17.9974 56.006 18.2355 54.4072 18.2355H47.5075V29.512H43.3716ZM52.3237 16.0188C53.432 16.0188 55.6856 15.8204 56.5247 15.4263C57.3638 15.0323 58.0696 14.5079 58.6196 13.8644C59.1723 13.2209 59.5919 12.4867 59.8668 11.6845C60.1333 10.9078 60.275 10.1254 60.2835 9.36005C60.275 8.59751 60.1361 7.81513 59.8668 7.04126C59.5919 6.23903 59.1695 5.50484 58.6196 4.86136C58.0696 4.22072 57.3638 3.69346 56.5247 3.29944C55.6856 2.90541 53.432 2.70698 52.3237 2.70698H47.5075V16.0188H52.3237Z"
    fill="#1D1D1C"/>
  <path d="M35.1952 0.490234H31.0594V29.512H35.1952V0.490234Z" fill="#1D1D1C"/>
  <path d="M12.1467 29.512L0 0.490234H4.8672L14.6129 23.8851L24.0781 0.490234H26.652L14.8794 29.512H12.1467Z"
        fill="#1D1D1C"/>
  <path
    d="M84.1551 29.512H89.0223L76.8727 0.490234H74.14L62.3646 29.512H64.9414L68.3459 21.0958H80.6429L84.1551 29.512ZM69.2615 18.8365L74.4065 6.11714L79.7074 18.8365H69.2615Z"
    fill="#1D1D1C"/>
</svg>
